<svg xmlns="http://www.w3.org/2000/svg" version="1.1" xmlns:xlink="http://www.w3.org/1999/xlink" width="512" height="512" x="0" y="0" viewBox="0 0 609.928 609.928" style="enable-background:new 0 0 512 512" xml:space="preserve" class=""><g><path fill="#fcfcfc" d="M570.267 542.516H39.542C17.746 542.516 0 524.769 0 502.854V106.955c0-21.796 17.746-39.542 39.542-39.542h530.605c21.915 0 39.661 17.746 39.661 39.542v395.899c.001 21.915-17.745 39.662-39.541 39.662z" opacity="1" data-original="#ffc738" class=""></path><path fill="#fcfcfc" d="M570.267 67.412H304.904v475.103h265.362c21.915 0 39.542-17.746 39.542-39.542V106.955c.001-21.796-17.745-39.543-39.541-39.543z" opacity="1" data-original="#ffb42e" class=""></path><path fill="#565656" d="M609.809 313.123v-16.317H396.733v-72.057l55.026-55.026h158.05c0-5.598-.596-11.077-1.548-16.317H448.305c-2.144 0-4.288.953-5.717 2.501l-57.408 57.289h-72.057V67.412h-16.317v145.663h-71.224l-57.289-57.289c-1.548-1.548-3.692-2.501-5.836-2.501H1.667c-.953 5.36-1.548 10.838-1.548 16.317h159.003l53.954 53.954v73.01H0v16.317h213.076v73.01l-53.954 54.311H.119c0 5.598.596 11.077 1.548 16.317h160.909c2.144 0 4.288-.953 5.836-2.501l57.289-57.289h71.224v145.663h16.317V396.733h72.057l57.408 57.289c1.429 1.548 3.573 2.501 5.717 2.501H608.38c.953-5.36 1.548-10.838 1.548-16.317H451.64l-55.026-55.026v-72.057zm-229.393 67.293H229.393V229.393h150.904v151.023z" opacity="1" data-original="#c66d4e" class=""></path><path fill="#565656" d="M609.809 313.123v-16.317H396.733v-72.057l55.026-55.026h158.05c0-5.598-.596-11.077-1.548-16.317H448.305c-2.144 0-4.288.953-5.717 2.501l-57.408 57.289h-72.057V67.412h-8.218v161.98h75.512v151.023h-75.512v161.981h8.218V396.733h72.057l57.408 57.289c1.429 1.548 3.573 2.501 5.717 2.501h159.956c.953-5.36 1.548-10.719 1.548-16.317H451.64l-55.026-55.026v-72.057z" opacity="1" data-original="#af5a35" class=""></path></g></svg>