<?xml version="1.0" encoding="UTF-8"?>
<!DOCTYPE svg  PUBLIC '-//W3C//DTD SVG 1.1//EN'  'http://www.w3.org/Graphics/SVG/1.1/DTD/svg11.dtd'>
<svg clip-rule="evenodd" fill-rule="evenodd" stroke-linejoin="round" stroke-miterlimit="2" version="1.1" viewBox="0 0 447 101" xml:space="preserve" xmlns="http://www.w3.org/2000/svg">
    <g transform="translate(-105.11 -116.33)">
        <g transform="translate(95.17 116.33)">
            <path d="m411.07 0h-155.11c-6.638 0-12.028 5.39-12.028 12.028v76.566c0 6.639 5.39 12.029 12.028 12.029h148.9c3.966 0 7.187-3.221 7.187-7.188 0-3.814-2.977-6.938-6.732-7.173v-0.014h-17.926c-3.966 0-7.187-3.22-7.187-7.187s3.221-7.188 7.187-7.188h20.707c3.966 0 7.187-3.22 7.187-7.187s-3.221-7.187-7.187-7.187h-10.243c-3.967 0-7.188-3.221-7.188-7.188 0-3.966 3.221-7.187 7.188-7.187h35.542c3.967 0 7.187-3.22 7.187-7.187s-3.22-7.188-7.187-7.188h-44.094c-3.967 0-7.187-3.22-7.187-7.187s3.22-7.187 7.187-7.187h21.774c3.967 0 7.187-3.221 7.187-7.188 0-3.966-3.22-7.187-7.187-7.187zm-78.359 80.065 4.585-12.066-11.262-29.59h6.771l6.89 18.624c0.193 0.461 0.366 0.928 0.519 1.4 0.154 0.473 0.296 0.963 0.426 1.471 0.142-0.508 0.292-0.996 0.449-1.465 0.158-0.468 0.323-0.937 0.496-1.406l6.937-18.624h6.818l-15.823 41.656h-6.806zm107.87-15.379c0-3.967-3.22-7.187-7.187-7.187h-0.09c-3.966 0-7.187 3.22-7.187 7.187s3.221 7.187 7.187 7.187h0.09c3.967 0 7.187-3.22 7.187-7.187zm-133.67 4.625c-3.293 0-5.889-0.896-7.787-2.688-1.899-1.793-2.848-4.229-2.848-7.309 0-1.997 0.484-3.74 1.453-5.229s2.33-2.642 4.083-3.46c1.753-0.817 3.803-1.226 6.151-1.226 1.375 0 2.687 0.135 3.938 0.405s2.372 0.667 3.365 1.191v-1.962c0-1.918-0.494-3.345-1.483-4.281-0.989-0.935-2.476-1.403-4.461-1.403-1.462 0-2.969 0.266-4.523 0.798s-3.083 1.302-4.588 2.31l-1.974-5.306c1.659-1.099 3.521-1.949 5.587-2.55 2.066-0.6 4.139-0.901 6.218-0.901 3.892 0 6.807 0.943 8.745 2.828s2.907 4.7 2.907 8.446v19.628h-6.428v-2.541c-1.072 1.052-2.324 1.857-3.758 2.414s-2.966 0.836-4.597 0.836zm-44.42-0.709v-41.36h16.922c3.435 0 6.161 0.626 8.177 1.876 2.017 1.251 3.459 2.854 4.325 4.81 0.867 1.955 1.3 3.989 1.3 6.1 0 1.473-0.253 2.958-0.759 4.452-0.506 1.495-1.309 2.871-2.408 4.128-1.099 1.256-2.525 2.266-4.278 3.028-1.752 0.762-3.872 1.143-6.357 1.143h-10.104v15.823h-6.818zm45.803-4.94c1.28 0 2.526-0.275 3.737-0.827 1.211-0.551 2.29-1.335 3.235-2.351v-4.113c-0.894-0.488-1.899-0.866-3.014-1.134-1.114-0.268-2.206-0.402-3.273-0.402-1.962 0-3.506 0.399-4.632 1.197-1.126 0.797-1.69 1.895-1.69 3.294 0 1.347 0.497 2.407 1.489 3.178 0.993 0.772 2.375 1.158 4.148 1.158zm-38.985-17.276h10.458c1.596 0 2.869-0.321 3.82-0.963 0.952-0.642 1.634-1.452 2.048-2.429 0.413-0.977 0.62-1.965 0.62-2.966 0-0.91-0.186-1.861-0.559-2.854-0.372-0.992-1.031-1.83-1.976-2.513-0.945-0.684-2.263-1.025-3.953-1.025h-10.458v12.75zm186.79-39.199c0-3.966-3.221-7.187-7.187-7.187h-14.172c-3.966 0-7.187 3.221-7.187 7.187 0 3.967 3.221 7.188 7.187 7.188h14.172c3.966 0 7.187-3.221 7.187-7.188z" fill="#fff"/>
        </g>
        <g transform="translate(25.829 -82.24)" fill="#fff" fill-rule="nonzero">
            <path d="m97.139 267.88c-3.155 0-5.863-0.596-8.124-1.787-2.261-1.192-4.107-2.807-5.536-4.845-1.43-2.039-2.487-4.333-3.17-6.884-0.684-2.55-1.025-5.175-1.025-7.873 0-2.608 0.355-5.176 1.066-7.705 0.711-2.528 1.794-4.824 3.25-6.886 1.455-2.062 3.306-3.71 5.551-4.945s4.908-1.853 7.988-1.853c2.616 0 4.817 0.392 6.603 1.176s3.28 1.803 4.481 3.058c1.202 1.254 2.238 2.581 3.108 3.979l-6.026 3.439c-0.922-1.382-2.013-2.591-3.274-3.625-1.26-1.034-2.891-1.551-4.892-1.551-2.044 0-3.759 0.454-5.143 1.362-1.385 0.908-2.491 2.101-3.318 3.578s-1.422 3.089-1.784 4.836c-0.363 1.747-0.544 3.459-0.544 5.137 0 1.899 0.205 3.737 0.615 5.513 0.409 1.776 1.045 3.37 1.908 4.78s1.979 2.527 3.347 3.35c1.369 0.823 3.009 1.235 4.919 1.235 1.54 0 2.91-0.339 4.109-1.016 1.2-0.678 2.144-1.601 2.833-2.769 0.69-1.167 1.034-2.494 1.034-3.979v-1.064h-7.173v-6.404h14.228v5.625c0 3.482-0.662 6.421-1.988 8.818-1.325 2.397-3.124 4.213-5.394 5.448-2.271 1.235-4.821 1.852-7.649 1.852z"/>
            <path d="m129.97 267.88c-3.293 0-5.889-0.896-7.788-2.688-1.898-1.793-2.848-4.229-2.848-7.309 0-1.997 0.485-3.74 1.454-5.229s2.33-2.642 4.083-3.46c1.753-0.817 3.803-1.226 6.151-1.226 1.374 0 2.687 0.135 3.938 0.405 1.25 0.27 2.372 0.667 3.365 1.191v-1.962c0-1.918-0.495-3.345-1.483-4.281-0.989-0.935-2.476-1.403-4.461-1.403-1.462 0-2.969 0.266-4.523 0.798s-3.084 1.302-4.589 2.31l-1.973-5.306c1.659-1.099 3.521-1.949 5.587-2.549 2.066-0.601 4.138-0.902 6.218-0.902 3.892 0 6.807 0.943 8.745 2.828s2.907 4.7 2.907 8.446v19.628h-6.428v-2.541c-1.072 1.052-2.324 1.857-3.758 2.414s-2.966 0.836-4.597 0.836zm1.383-5.649c1.28 0 2.526-0.275 3.737-0.827 1.211-0.551 2.289-1.335 3.235-2.351v-4.113c-0.895-0.488-1.899-0.866-3.014-1.134s-2.206-0.402-3.273-0.402c-1.962 0-3.506 0.399-4.632 1.197-1.127 0.797-1.69 1.895-1.69 3.294 0 1.347 0.496 2.407 1.489 3.179 0.992 0.771 2.375 1.157 4.148 1.157z"/>
            <path d="m159.95 267.88c-2.289 0-4.015-0.648-5.179-1.944s-1.746-3.2-1.746-5.713v-17.431h-4.573v-5.813h4.573v-9.3l6.606-3.167v12.467h7.043v5.813h-7.043v15.977c0 1.099 0.212 1.91 0.635 2.431 0.424 0.522 1.086 0.783 1.988 0.783 1.434 0 2.998-0.476 4.691-1.429l-0.756 5.967c-0.91 0.457-1.878 0.798-2.904 1.022-1.026 0.225-2.138 0.337-3.335 0.337z"/>
            <path d="m185.2 267.88c-2.852 0-5.312-0.66-7.38-1.979-2.068-1.32-3.657-3.167-4.768-5.542-1.111-2.376-1.667-5.147-1.667-8.314 0-3.281 0.572-6.1 1.714-8.458 1.142-2.357 2.747-4.166 4.815-5.427 2.068-1.26 4.497-1.891 7.286-1.891 2.383 0 4.553 0.512 6.511 1.534s3.518 2.592 4.682 4.709 1.746 4.814 1.746 8.092c0 0.504-0.012 1.105-0.038 1.805-0.025 0.699-0.08 1.405-0.162 2.118h-19.948c0.119 1.532 0.485 2.871 1.099 4.018 0.615 1.146 1.444 2.039 2.488 2.679s2.274 0.96 3.692 0.96c1.383 0 2.609-0.234 3.679-0.703 1.069-0.469 2.081-1.215 3.034-2.239l3.84 4.053c-1.241 1.359-2.75 2.463-4.529 3.312-1.778 0.849-3.81 1.273-6.094 1.273zm-7.197-18.694h13.637c-0.063-1.446-0.353-2.712-0.871-3.797s-1.252-1.927-2.201-2.526c-0.95-0.598-2.104-0.898-3.463-0.898-1.887 0-3.497 0.591-4.83 1.773-1.333 1.181-2.091 2.997-2.272 5.448z"/>
            <path d="m209.82 267.17-8.141-30.192h6.547l3.97 16.815c0.138 0.544 0.273 1.157 0.405 1.84 0.132 0.684 0.245 1.323 0.339 1.918 0.123-0.591 0.266-1.232 0.432-1.924 0.165-0.691 0.317-1.302 0.455-1.834l4.585-16.815h5.719l4.562 16.815c0.149 0.567 0.309 1.197 0.478 1.888s0.317 1.338 0.443 1.941c0.106-0.607 0.223-1.253 0.349-1.938 0.126-0.686 0.258-1.316 0.395-1.891l4.007-16.815h6.546l-8.189 30.192h-5.885l-4.479-16.036c-0.153-0.559-0.335-1.264-0.546-2.115s-0.395-1.607-0.553-2.269c-0.138 0.662-0.313 1.418-0.525 2.269-0.213 0.851-0.396 1.556-0.55 2.115l-4.455 16.036h-5.909z"/>
            <path d="m254.76 267.88c-3.293 0-5.889-0.896-7.788-2.688-1.898-1.793-2.848-4.229-2.848-7.309 0-1.997 0.485-3.74 1.454-5.229s2.33-2.642 4.083-3.46c1.753-0.817 3.803-1.226 6.151-1.226 1.374 0 2.687 0.135 3.938 0.405 1.25 0.27 2.372 0.667 3.365 1.191v-1.962c0-1.918-0.495-3.345-1.483-4.281-0.989-0.935-2.476-1.403-4.461-1.403-1.462 0-2.969 0.266-4.523 0.798s-3.084 1.302-4.588 2.31l-1.974-5.306c1.659-1.099 3.521-1.949 5.587-2.549 2.066-0.601 4.139-0.902 6.218-0.902 3.892 0 6.807 0.943 8.745 2.828s2.907 4.7 2.907 8.446v19.628h-6.428v-2.541c-1.072 1.052-2.324 1.857-3.758 2.414s-2.966 0.836-4.597 0.836zm1.383-5.649c1.28 0 2.526-0.275 3.737-0.827 1.211-0.551 2.289-1.335 3.235-2.351v-4.113c-0.895-0.488-1.899-0.866-3.014-1.134s-2.206-0.402-3.273-0.402c-1.962 0-3.506 0.399-4.632 1.197-1.127 0.797-1.69 1.895-1.69 3.294 0 1.347 0.496 2.407 1.489 3.179 0.993 0.771 2.375 1.157 4.148 1.157z"/>
            <path d="m280.56 278.64 4.585-12.066-11.261-29.589h6.771l6.889 18.623c0.193 0.461 0.367 0.928 0.52 1.4 0.154 0.473 0.296 0.963 0.426 1.472 0.142-0.509 0.291-0.997 0.449-1.466 0.158-0.468 0.323-0.937 0.496-1.406l6.937-18.623h6.818l-15.823 41.655h-6.807z"/>
        </g>
    </g>
</svg>