<?xml version="1.0" encoding="UTF-8"?>
<!DOCTYPE svg  PUBLIC '-//W3C//DTD SVG 1.1//EN'  'http://www.w3.org/Graphics/SVG/1.1/DTD/svg11.dtd'>
<svg clip-rule="evenodd" fill-rule="evenodd" stroke-linejoin="round" stroke-miterlimit="2" version="1.1" viewBox="0 0 512 158" xml:space="preserve" xmlns="http://www.w3.org/2000/svg">
    <g transform="translate(0 -177.19)" fill="#fff" fill-rule="nonzero">
        <path d="m205.01 179.81-26.021 152.7h41.616l26.042-152.7h-41.637zm-60.915 0.171-40.76 104.14-4.345-15.724c-8.039-18.946-30.859-46.154-57.65-63.302l37.27 127.34 44.035-0.075 65.538-152.41-44.088 0.032z"/>
        <path d="m83.189 190.91c-2.419-9.302-9.43-12.074-18.132-12.406h-64.522l-0.535 3.04c50.211 12.181 83.435 41.53 97.222 76.821l-14.033-67.455zm247.8 18.175c10.676-0.238 21.284 1.753 31.148 5.844l3.757 1.766 5.63-33.096c-8.242-3.093-21.161-6.411-37.281-6.411-41.124 0-70.109 20.711-70.334 50.393-0.268 21.932 20.647 34.177 36.446 41.487 16.216 7.493 21.654 12.256 21.579 18.946-0.129 10.222-12.93 14.91-24.886 14.91-16.666 0-25.518-2.301-39.187-7.996l-5.362-2.44-5.855 34.177c9.74 4.27 27.712 7.942 46.368 8.135 43.746 0 72.175-20.466 72.475-52.181 0.182-17.351-10.918-30.591-34.969-41.455-14.557-7.086-23.462-11.796-23.377-18.946 0-6.347 7.557-13.133 23.848-13.133zm147.34-29.104h-32.154c-9.986 0-17.415 2.719-21.803 12.674l-61.792 139.94h43.703s7.128-18.818 8.745-22.938l53.293 0.064c1.242 5.33 5.074 22.874 5.074 22.874h38.608l-33.674-152.61zm-51.324 98.421c3.425-8.767 16.58-42.676 16.58-42.676-0.225 0.418 3.393-8.83 5.545-14.578l2.804 13.165 9.644 44.089h-34.573z"/>
    </g>
</svg>